<?xml version="1.0" encoding="UTF-8"?>
<svg version="1.1" xmlns="http://www.w3.org/2000/svg" width="2000" height="805">
<path d="M0 0 C46.53 0 93.06 0 141 0 C134.06446389 41.61321666 134.06446389 41.61321666 131.60546875 55.37890625 C131.32487127 56.95692606 131.04438244 58.53496519 130.76399231 60.11302185 C130.19331565 63.32224252 129.62126709 66.53121422 129.0480957 69.73999023 C128.31448863 73.84772965 127.58488652 77.95617023 126.85622692 82.06478977 C126.28564246 85.27943884 125.71295228 88.49370995 125.1396122 91.70786858 C124.86901523 93.2264089 124.59909517 94.74507001 124.32988548 96.26385689 C123.95931473 98.35281208 123.58588273 100.44123563 123.21166992 102.52954102 C123.00104416 103.71113297 122.7904184 104.89272491 122.57341003 106.11012268 C122 109 122 109 121 112 C121.5686377 111.83918945 122.13727539 111.67837891 122.72314453 111.51269531 C146.82308102 106.08594573 178.14109337 113.56488259 199 126 C216.1374222 137.78197776 226.98152015 155.91073757 231.125 176.125 C232.30469102 183.03602325 232.64134449 190.00621759 233 197 C233.61875 195.38544922 233.61875 195.38544922 234.25 193.73828125 C239.63057513 180.00652287 246.34881901 168.26276339 256 157 C256.71027344 156.15566406 257.42054688 155.31132813 258.15234375 154.44140625 C282.76254826 126.02505412 320.89926091 114.09137945 357.30859375 111.3125 C386.28776833 109.50611263 416.13771395 110.95704223 443 123 C444.01191406 123.45117188 445.02382812 123.90234375 446.06640625 124.3671875 C465.79749942 133.690948 480.60248788 148.39781262 490 168 C490.96203002 162.95068818 491.92223591 157.90103389 492.88085938 152.85107422 C493.20622241 151.13841722 493.53205656 149.42584965 493.85839844 147.71337891 C494.33136379 145.23103619 494.80292173 142.74843315 495.2734375 140.265625 C495.5021756 139.05888123 495.5021756 139.05888123 495.73553467 137.82775879 C496.77916978 132.28003675 497.73231089 126.72309127 498.59228516 121.14355469 C499 119 499 119 500 117 C622.1 117 744.2 117 870 117 C882.80239168 156.57102884 882.80239168 156.57102884 884 170 C884.08701172 170.79100098 884.17402344 171.58200195 884.26367188 172.39697266 C885.10156272 180.42378866 885.24311997 188.4345044 885.25 196.5 C885.25101212 197.57698151 885.25101212 197.57698151 885.25204468 198.67572021 C885.17128128 253.34876553 868.47506081 310.01563 830.4921875 350.546875 C826.2580462 354.71465045 821.71684423 358.39574473 817 362 C816.14921875 362.66644531 815.2984375 363.33289063 814.421875 364.01953125 C780.98829143 389.39502057 738.71073447 397.29343195 697.51245117 392.17700195 C682.85497472 389.99627327 668.52243231 385.56972456 655.6875 378.0625 C652.02926685 376.61622178 650.63664865 377.59198639 647 379 C645.21199866 379.79488973 643.42443897 380.5910827 641.64794922 381.41137695 C635.3468155 384.30770131 629.02054339 386.82167336 622.375 388.8125 C621.74424561 389.00690674 621.11349121 389.20131348 620.46362305 389.40161133 C608.9285484 392.70377502 597.12037053 393.34019613 585.1875 393.25 C583.87015869 393.24250732 582.55281738 393.23501465 581.19555664 393.22729492 C548.79169792 392.86980397 516.74708051 385.34162316 493 362 C484.51513404 352.53117479 475 337.07185992 475 324 C474.34 324 473.68 324 473 324 C472.79375 324.78375 472.5875 325.5675 472.375 326.375 C468.2083654 337.35976394 460.45430584 346.96840945 452 355 C451.48695313 355.56847656 450.97390625 356.13695312 450.4453125 356.72265625 C431.54515242 377.12347282 401.74346708 386.79785273 375 391 C373.73027344 391.20496094 372.46054688 391.40992188 371.15234375 391.62109375 C332.0459685 397.13686083 281.84851801 395.52465885 249 371 C247.15279501 369.36783223 245.35307349 367.734044 243.6328125 365.96875 C241.97859875 364.79175477 241.97859875 364.79175477 239.64453125 365.05859375 C236.22362191 366.27637684 234.24817921 368.1226666 231.5625 370.5625 C209.55533548 389.73647905 181.41278302 394.79719411 153 393 C130.59205034 391.02135467 110.90976064 383.07377879 95 367 C94.32066406 366.34257813 93.64132812 365.68515625 92.94140625 365.0078125 C87.40478784 359.26156711 84.31049789 352.16436017 81 345 C77.79536852 358.88673641 75.42146335 372.9555126 73 387 C26.47 387 -20.06 387 -68 387 C-66.82829066 377.62632531 -65.66612373 368.48423791 -63.875 359.25 C-63.51495608 357.38083583 -63.15805159 355.51106348 -62.8046875 353.640625 C-62.57241455 352.44228027 -62.57241455 352.44228027 -62.33544922 351.21972656 C-61.90038318 348.71497304 -61.90038318 348.71497304 -62 345 C-62.58394531 345.70962891 -62.58394531 345.70962891 -63.1796875 346.43359375 C-84.69529116 371.86563217 -116.72821705 384.79603948 -149 390 C-149.91233398 390.14953125 -150.82466797 390.2990625 -151.76464844 390.453125 C-199.73468478 397.90977386 -260.56667487 397.21986503 -302 369 C-306.3396289 365.67315405 -310.19026622 361.91239127 -314 358 C-314.73734375 357.26007813 -315.4746875 356.52015625 -316.234375 355.7578125 C-335.44802486 335.42708997 -340.89656542 308.18928882 -340.28125 281.11328125 C-339.50219846 260.510614 -334.89702363 240.17792237 -331 220 C-318.46 219.67 -305.92 219.34 -293 219 C-295.64 216.03 -298.28 213.06 -301 210 C-306.05168334 202.79667376 -309.56178529 195.18197846 -312.375 186.875 C-312.6136377 186.17189697 -312.85227539 185.46879395 -313.09814453 184.74438477 C-316.57812555 173.78231873 -317.3631756 162.88577947 -317.3125 151.4375 C-317.30758545 150.1184668 -317.3026709 148.79943359 -317.29760742 147.44042969 C-317.1734408 137.03080967 -316.31933588 127.14335175 -314 117 C-313.83902832 116.26458984 -313.67805664 115.52917969 -313.51220703 114.77148438 C-306.82735068 85.10382218 -288.99248641 58.14688487 -263.375 41.4375 C-243.02457817 28.58870406 -221.52916204 21.56798408 -198 17 C-196.59355225 16.72663818 -196.59355225 16.72663818 -195.15869141 16.44775391 C-179.82877789 13.66326754 -164.34170924 13.69382009 -148.8125 13.625 C-147.8003241 13.6169635 -146.78814819 13.608927 -145.74530029 13.60064697 C-127.51971991 13.49100776 -109.21683689 14.61750164 -91.625 19.75 C-90.72418701 20.00531494 -89.82337402 20.26062988 -88.89526367 20.52368164 C-64.29419173 27.75312596 -40.34458559 42.50742926 -27 65 C-22.93308778 72.49219053 -19.34928114 80.1640324 -16 88 C-15.81429947 86.94177536 -15.62859894 85.88355072 -15.43727112 84.79325867 C-13.68874581 74.83094081 -11.93782358 64.86904683 -10.18454075 54.90756512 C-9.2831933 49.78600066 -8.38269733 44.6642895 -7.48413086 39.54223633 C-6.61728354 34.60117277 -5.74822109 29.66050356 -4.87760735 24.72010231 C-4.54548808 22.83315784 -4.21417351 20.94607156 -3.8836689 19.05884361 C-3.42138791 16.41995505 -2.95627416 13.78158066 -2.49047852 11.14331055 C-2.35381271 10.3592836 -2.21714691 9.57525665 -2.07633972 8.76747131 C-1.54209688 5.75544482 -0.96897951 2.90693854 0 0 Z M-33 183 C-33.4846875 183.85464844 -33.969375 184.70929688 -34.46875 185.58984375 C-39.87852238 194.50556476 -39.87852238 194.50556476 -43.3125 196.01953125 C-45.5 196.25 -45.5 196.25 -49 196 C-47.41460707 200.1695834 -45.50297233 204.14419725 -43.5 208.125 C-43.19191406 208.74503906 -42.88382813 209.36507812 -42.56640625 210.00390625 C-41.16884328 212.79303407 -39.73331228 215.40003158 -38 218 C-37.11879301 213.33844921 -36.24618747 208.67540256 -35.3815918 204.01074219 C-35.08611452 202.42338433 -34.78827168 200.83646494 -34.48803711 199.25 C-34.05743977 196.97246038 -33.63531301 194.69349073 -33.21484375 192.4140625 C-33.07843979 191.70255035 -32.94203583 190.99103821 -32.80149841 190.25796509 C-31.98653445 186.53825086 -31.98653445 186.53825086 -33 183 Z " fill="#000000" transform="translate(733,403)"/>
<path d="M0 0 C46.53 0 93.06 0 141 0 C139.82870073 8.19909489 138.65568375 16.34694869 137.21240234 24.49365234 C136.96324821 25.91586342 136.96324821 25.91586342 136.70906067 27.36680603 C136.17010979 30.44022114 135.6280615 33.51308067 135.0859375 36.5859375 C134.70745829 38.74065816 134.3291759 40.8954134 133.95108032 43.05020142 C132.96338232 48.67608591 131.97304033 54.30150174 130.9821167 59.92681885 C129.96822804 65.68530282 128.95688245 71.44423335 127.9453125 77.203125 C125.96600776 88.4691845 123.98390503 99.73474974 122 111 C122.97122803 110.98428955 123.94245605 110.9685791 124.94311523 110.95239258 C128.63524685 110.89703781 132.32734417 110.86327729 136.01977539 110.83520508 C137.60121883 110.82035359 139.18262295 110.80006695 140.76391602 110.77368164 C161.75876839 110.43279101 182.41784213 113.67746201 200 126 C200.80566406 126.54914063 201.61132812 127.09828125 202.44140625 127.6640625 C219.54188129 140.24187669 228.75375183 159.66503477 232.5859375 180.12890625 C234.82544232 201.06616353 232.71702035 220.47868369 225 240 C226.11375 239.34 227.2275 238.68 228.375 238 C231.75 236 231.75 236 234 236 C233.30126974 258.60390666 232.45447808 281.20183393 231.50879288 303.79671669 C231.29144212 308.99465368 231.07974982 314.19269734 230.88037109 319.39135742 C230.68392968 324.5098612 230.47400865 329.6276455 230.25442123 334.74520683 C230.17390799 336.67510149 230.09816891 338.60520174 230.0274086 340.53547859 C229.92851416 343.209355 229.81230863 345.88195005 229.69189453 348.55493164 C229.66684845 349.34074112 229.64180237 350.1265506 229.61599731 350.93617249 C229.3922929 355.42563737 228.75100643 358.413225 226 362 C223.9071019 363.88699303 221.85736853 365.61135868 219.625 367.3125 C219.00286621 367.79106445 218.38073242 368.26962891 217.73974609 368.76269531 C191.84186626 388.38130709 161.83111703 396.47292566 129.52514648 392.1796875 C110.97396727 389.34162692 94.82530302 382.4230484 81.36328125 369.2578125 C79.21776546 366.98617483 79.21776546 366.98617483 77 366 C75.68 372.93 74.36 379.86 73 387 C26.47 387 -20.06 387 -68 387 C-65.75 371.25 -65.75 371.25 -64.7109375 365.2890625 C-64.49179688 364.02578125 -64.27265625 362.7625 -64.046875 361.4609375 C-63.82515625 360.19507813 -63.6034375 358.92921875 -63.375 357.625 C-63.143037 356.29170008 -62.9112654 354.95836686 -62.6796875 353.625 C-62.12165904 350.41633635 -61.56173977 347.2080156 -61 344 C-61.67804687 344.76183594 -62.35609375 345.52367187 -63.0546875 346.30859375 C-72.69070176 357.04476911 -82.31412557 365.88246446 -95 373 C-96.05703125 373.59683594 -97.1140625 374.19367188 -98.203125 374.80859375 C-139.58299658 396.8222932 -196.50245639 399.49806115 -240.8828125 386.3046875 C-242.25681018 385.87487931 -243.629331 385.44030809 -245 385 C-246.15242188 384.63132812 -247.30484375 384.26265625 -248.4921875 383.8828125 C-263.04330515 378.72410331 -275.27112808 371.02506777 -286 360 C-286.67546875 359.32195312 -287.3509375 358.64390625 -288.046875 357.9453125 C-295.04824683 350.47924784 -299.58088468 341.55704524 -303 332 C-303.92619141 333.34191406 -303.92619141 333.34191406 -304.87109375 334.7109375 C-315.92408771 350.56221567 -327.98949193 363.45608591 -345 373 C-346.05703125 373.59683594 -347.1140625 374.19367188 -348.203125 374.80859375 C-390.43903178 397.27769582 -448.57215134 399.50156107 -493.75097656 385.74316406 C-500.0658947 383.65647162 -506.06762444 380.9924663 -512 378 C-513.06734375 377.46632813 -514.1346875 376.93265625 -515.234375 376.3828125 C-523.26911529 372.03239613 -529.58255453 366.40810421 -536 360 C-536.66902344 359.34257812 -537.33804687 358.68515625 -538.02734375 358.0078125 C-545.22493547 350.40219404 -550.0365747 340.6027434 -554 331 C-554.47308594 331.67804688 -554.94617187 332.35609375 -555.43359375 333.0546875 C-576.99952744 363.40674232 -605.5170854 379.0038741 -641.73828125 385.203125 C-643.48748238 385.49814903 -645.24265407 385.75817555 -647 386 C-647.59396356 386.08380511 -648.18792711 386.16761023 -648.79988956 386.25395489 C-657.87841673 387.35002916 -666.99948627 387.13224423 -676.12744141 387.11352539 C-678.05992634 387.11324298 -679.99241137 387.1134023 -681.92489624 387.1139679 C-687.1472875 387.11425377 -692.3696556 387.108391 -697.59204149 387.10139394 C-703.05862338 387.09512542 -708.52520585 387.09455384 -713.99179077 387.09336853 C-724.33292529 387.09026551 -734.67404919 387.08206603 -745.01517904 387.07201904 C-756.79269449 387.0608259 -768.57021047 387.05533939 -780.34772992 387.05032361 C-804.56515916 387.03988254 -828.78257898 387.02230307 -853 387 C-849.01295768 362.77820713 -844.86038375 338.58942826 -840.58197308 314.41750836 C-839.76219312 309.78360852 -838.9445034 305.14933974 -838.12652588 300.51512146 C-836.54730257 291.56996575 -834.96626356 282.62513201 -833.38443971 273.68043584 C-832.10703652 266.45706801 -830.83017238 259.2336051 -829.55371094 252.0100708 C-829.37134274 250.97804669 -829.18897454 249.94602257 -829.00108004 248.882725 C-828.63141166 246.79074209 -828.26174605 244.69875869 -827.89208317 242.60677481 C-825.46446635 228.86856901 -823.03653656 215.13041867 -820.60754395 201.39245605 C-816.22833162 176.62315545 -811.85758355 151.85238222 -807.49615216 127.07994467 C-805.52167738 115.86578575 -803.54449632 104.65210387 -801.56696701 93.43848324 C-800.00438459 84.57711237 -798.444126 75.71533835 -796.88671851 66.85305649 C-795.83461342 60.86744438 -794.77965271 54.88234019 -793.7223475 48.89764446 C-793.11829733 45.47798729 -792.51557217 42.0581102 -791.91635895 38.63760185 C-791.27339611 34.97112732 -790.62563002 31.30553466 -789.9765625 27.64013672 C-789.78880627 26.56252295 -789.60105003 25.48490919 -789.40760422 24.37464046 C-789.14904081 22.92327867 -789.14904081 22.92327867 -788.88525391 21.44259644 C-788.73730377 20.60236876 -788.58935364 19.76214108 -788.43692017 18.89645195 C-788 17 -788 17 -787 16 C-784.97165757 15.89882261 -782.9397367 15.86922355 -780.90887451 15.86628723 C-779.9436403 15.8628889 -779.9436403 15.8628889 -778.95890641 15.85942191 C-776.78606297 15.85305377 -774.61328147 15.85391314 -772.44042969 15.85473633 C-770.88816751 15.85174603 -769.33590607 15.8483438 -767.78364563 15.84455872 C-763.54895485 15.83568761 -759.31428425 15.83337892 -755.07958508 15.83274293 C-752.42689745 15.83203259 -749.77421497 15.82989829 -747.12152863 15.82724571 C-737.84485041 15.81797239 -728.5681866 15.8139121 -719.29150391 15.81469727 C-710.68667837 15.81529418 -702.08191633 15.80482415 -693.47710681 15.7889536 C-686.06789953 15.77578272 -678.6587127 15.77051754 -671.24949384 15.77115268 C-666.83507645 15.77140547 -662.4207151 15.76867861 -658.00630951 15.75797462 C-611.86643621 15.65388889 -611.86643621 15.65388889 -594.125 20.25 C-593.26334229 20.46543457 -592.40168457 20.68086914 -591.51391602 20.90283203 C-566.09098621 27.51312453 -545.15769057 41.30949853 -531.25 63.8125 C-527.64543687 70.27901951 -525.14553744 76.92679966 -523 84 C-522.51853516 85.49273437 -522.51853516 85.49273437 -522.02734375 87.015625 C-514.81085634 113.73341094 -521.90714048 143.14628173 -528.60449219 169.22607422 C-529.0725377 171.02243145 -529.0725377 171.02243145 -529 173 C-528.45085937 172.03513672 -528.45085937 172.03513672 -527.890625 171.05078125 C-510.86518231 142.63450666 -481.1762318 124.54338871 -449.64306641 116.390625 C-447.2679751 115.81212097 -444.88845245 115.270468 -442.5 114.75 C-441.81446045 114.59885742 -441.1289209 114.44771484 -440.42260742 114.29199219 C-425.98490076 111.37515076 -411.37553177 110.61591269 -396.6875 110.6875 C-395.88328613 110.68965515 -395.07907227 110.6918103 -394.25048828 110.69403076 C-363.91479591 110.82395933 -332.05201651 116.07010581 -308 136 C-307.13890625 136.71027344 -306.2778125 137.42054688 -305.390625 138.15234375 C-294.74804631 147.32753659 -285.87939361 158.71720629 -281 172 C-281 172.99 -281 173.98 -281 175 C-280.34 175 -279.68 175 -279 175 C-278.74347656 174.28199219 -278.48695313 173.56398437 -278.22265625 172.82421875 C-267.85242016 148.86996733 -241.29688503 131.52936147 -217.84326172 122.13623047 C-209.57193151 119.01166958 -201.13530807 116.63172117 -192.5 114.75 C-191.81446045 114.59885742 -191.1289209 114.44771484 -190.42260742 114.29199219 C-175.98377466 111.37492325 -161.37633295 110.61930636 -146.6875 110.6875 C-145.88528015 110.68899048 -145.0830603 110.69048096 -144.25653076 110.6920166 C-131.64728503 110.73396915 -119.36266532 111.31856079 -107 114 C-106.319375 114.14453613 -105.63875 114.28907227 -104.9375 114.43798828 C-79.48777292 120.04860927 -54.63102939 133.16910413 -39.7421875 155.125 C-36.44770003 160.561643 -33.74804875 166.2722627 -31 172 C-27.43571113 154.88187493 -24.40607022 137.67195395 -21.37719941 120.45320249 C-20.66404691 116.40208709 -19.94817523 112.3514522 -19.23258972 108.30076599 C-17.88279993 100.65785047 -16.53520352 93.0145501 -15.18851823 85.37108701 C-13.20794556 74.13030905 -11.22444057 62.89004842 -9.24042034 51.6498785 C-9.02165862 50.41051339 -9.02165862 50.41051339 -8.79847747 49.14611059 C-8.50774706 47.49903248 -8.2170093 45.85195566 -7.92626399 44.20488018 C-7.07777912 39.39773167 -6.230091 34.59044354 -5.38310015 29.78303158 C-4.85784537 26.80219201 -4.33215181 23.82142993 -3.80637169 20.84068298 C-3.56308788 19.46084063 -3.32000307 18.08096317 -3.07713318 16.7010479 C-2.745409 14.81639972 -2.41292237 12.9318858 -2.08039856 11.04737854 C-1.80197475 9.46721372 -1.80197475 9.46721372 -1.51792622 7.85512638 C-1.04192852 5.23113565 -0.52300541 2.61502706 0 0 Z M-531 174 C-530 176 -530 176 -530 176 Z M-540 194 C-540.88791631 195.1411908 -541.73616038 196.31346106 -542.5625 197.5 C-543.01753906 198.1496875 -543.47257812 198.799375 -543.94140625 199.46875 C-544.29074219 199.9740625 -544.64007812 200.479375 -545 201 C-544.34 202.32 -543.68 203.64 -543 205 C-541.20446585 202.30669878 -540.57303539 200.8539399 -539.875 197.8125 C-539.58625 196.554375 -539.2975 195.29625 -539 194 C-539.33 194 -539.66 194 -540 194 Z " fill="#000000" transform="translate(1746,9)"/>
<path d="M0 0 C92.73 0 185.46 0 281 0 C278.70192964 16.08649255 278.70192964 16.08649255 277.41186523 23.14501953 C277.26687592 23.95018509 277.1218866 24.75535065 276.97250366 25.58491516 C276.50369203 28.18467179 276.03124951 30.78375227 275.55859375 33.3828125 C275.22735793 35.21406748 274.89631183 37.04535679 274.56544495 38.87667847 C273.87701247 42.68402719 273.18687026 46.49106042 272.49536133 50.29785156 C271.6094514 55.17517091 270.72703921 60.05311504 269.84577847 64.93127632 C269.16484278 68.69922142 268.48252069 72.46691436 267.7997303 76.23452377 C267.47366777 78.0341997 267.14793434 79.83393528 266.82253838 81.63373184 C266.36928421 84.13904284 265.91426944 86.64402759 265.45874023 89.14892578 C265.25845467 90.25852913 265.25845467 90.25852913 265.05412292 91.39054871 C264.46426645 94.62439803 263.81903473 97.81699477 263 101 C305.14993122 100.96397179 347.29978823 100.90698667 389.44965073 100.82207905 C394.43111452 100.81206215 399.41257863 100.80221793 404.39404297 100.79248047 C405.38572072 100.7905391 406.37739847 100.78859772 407.39912707 100.78659752 C423.43500009 100.75561597 439.47085882 100.73860762 455.50675613 100.72680578 C471.97341475 100.71437427 488.43999861 100.68682782 504.90661001 100.64538693 C515.05914367 100.62030871 525.21155327 100.60687857 535.36411834 100.60857043 C542.33564339 100.60860029 549.30704251 100.5938865 556.27851844 100.56783572 C560.29465785 100.55325573 564.31053903 100.54492966 568.32670021 100.55419731 C588.89284007 100.87694067 588.89284007 100.87694067 608.95493317 96.95346451 C631.85205956 89.78396757 663.72832499 94.38353688 684.9375 105.3125 C702.5075227 115.48692161 713.68334038 130.0598957 719.375 149.5625 C721.75829622 158.5257662 722.2787311 166.89513495 722.3125 176.125 C722.31578308 176.85431732 722.31906616 177.58363464 722.32244873 178.33505249 C722.34196995 191.81666371 720.9451689 204.72888776 718.54003906 218.01025391 C717.63916705 222.99763125 716.82587217 227.9997497 716 233 C716.68626465 232.60619141 717.3725293 232.21238281 718.07958984 231.80664062 C721.17554477 230.03332633 724.27520366 228.26659009 727.375 226.5 C728.45523438 225.87996094 729.53546875 225.25992188 730.6484375 224.62109375 C731.6796875 224.03457031 732.7109375 223.44804687 733.7734375 222.84375 C734.72653809 222.29912109 735.67963867 221.75449219 736.66162109 221.19335938 C739 220 739 220 741 220 C741.0291462 227.79130914 740.96078139 235.57255094 740.76318359 243.36132812 C740.73690384 244.42645126 740.71062408 245.4915744 740.68354797 246.588974 C740.43415252 256.32171157 740.11439949 266.05184941 739.76961327 275.7816391 C739.54040476 282.29724155 739.33698467 288.81151612 739.19238281 295.32958984 C739.05092335 301.66818994 738.84290346 308.00146704 738.58919144 314.33653259 C738.50441688 316.73739167 738.44300421 319.13920165 738.40620041 321.54127502 C738.08034633 341.20571022 738.08034633 341.20571022 732.98223877 347.02832031 C730.17042693 349.67904672 727.16321149 351.8435477 723.86665726 353.84945679 C721.25946441 355.45644062 718.8183323 357.26910389 716.35065269 359.08034515 C692.12893675 376.37519526 662.38432425 379.76220588 633.57324219 375.40795898 C610.86492437 371.60704126 593.47683857 360.87870664 579 343 C578.67 342.34 578.34 341.68 578 341 C577.85377197 341.80219971 577.70754395 342.60439941 577.55688477 343.4309082 C576.8943326 347.05851928 576.22845674 350.68551246 575.5625 354.3125 C575.33240234 355.57513672 575.10230469 356.83777344 574.86523438 358.13867188 C574.64287109 359.34716797 574.42050781 360.55566406 574.19140625 361.80078125 C573.98717041 362.91622314 573.78293457 364.03166504 573.57250977 365.1809082 C573 368 573 368 572 371 C444.29 371 316.58 371 185 371 C186.125 359.75 186.125 359.75 186.80360413 355.96310425 C186.95611917 355.10127974 187.1086342 354.23945522 187.26577091 353.35151482 C187.43080333 352.44129129 187.59583574 351.53106777 187.76586914 350.59326172 C188.03367896 349.08975757 188.03367896 349.08975757 188.30689907 347.55587959 C188.87944568 344.34650426 189.457176 341.13808821 190.03515625 337.9296875 C190.3919058 335.93438781 190.74831172 333.93902665 191.10437012 331.94360352 C192.4195916 324.58665831 193.7414392 317.23089891 195.0625 309.875 C198.011875 293.41625 200.96125 276.9575 204 260 C169.68 260 135.36 260 100 260 C98.02 272.21 96.04 284.42 94 297 C92.87393369 303.60401666 91.74136973 310.20492752 90.5703125 316.80078125 C90.31805051 318.23250388 90.06601942 319.66426722 89.81420898 321.09606934 C88.92054316 326.16869587 88.02256311 331.24056161 87.125 336.3125 C85.10375 347.759375 83.0825 359.20625 81 371 C32.82 371 -15.36 371 -65 371 C-61.37900883 349.27405297 -57.74102417 327.56105882 -53.9107821 305.87260532 C-53.2755859 302.27358935 -52.64238249 298.6742226 -52.00889587 295.0749054 C-50.91821291 288.87940216 -49.82635641 282.68410675 -48.73362732 276.48896408 C-47.14733904 267.49561674 -45.56294035 258.50193724 -43.97894222 249.5081863 C-41.39822731 234.85548947 -38.81604675 220.20305134 -36.23291016 205.55078125 C-33.74350328 191.43015393 -31.25481678 177.30939995 -28.76708984 163.18847656 C-28.61374784 162.31807265 -28.46040583 161.44766873 -28.3024171 160.55088894 C-27.53202169 156.17792646 -26.7616392 151.8049617 -25.99126148 147.43199611 C-21.27053103 120.63541371 -16.54883454 93.83900165 -11.82547021 67.0428834 C-11.46209813 64.98141983 -11.0987376 62.91995423 -10.73538017 60.85848808 C-10.50700022 59.5628248 -10.27862026 58.26716152 -10.0433197 56.93223572 C-9.84706717 55.8188297 -9.65081465 54.70542368 -9.44861507 53.55827808 C-6.301205 35.70514178 -3.1504588 17.85259989 0 0 Z M450.640625 227.140625 C449.33738281 228.12869141 449.33738281 228.12869141 448.0078125 229.13671875 C447.09773437 229.83410156 446.18765625 230.53148437 445.25 231.25 C443.46467356 232.61086122 441.67824214 233.97027422 439.890625 235.328125 C439.04822266 235.96814453 438.20582031 236.60816406 437.33789062 237.26757812 C435.37843247 238.71957427 433.40341304 240.09361056 431.359375 241.421875 C430.58078125 241.94265625 429.8021875 242.4634375 429 243 C429 243.33 429 243.66 429 244 C437.25 244 445.5 244 454 244 C454.7425 240.16375 454.7425 240.16375 455.5 236.25 C455.65662109 235.45110352 455.81324219 234.65220703 455.97460938 233.82910156 C456.61530251 230.46461514 457 227.4380842 457 224 C454.10942515 224 452.92394008 225.39620585 450.640625 227.140625 Z M217 228 C215.68 235.92 214.36 243.84 213 252 C218.83897262 248.68272675 218.83897262 248.68272675 224.3046875 244.9765625 C225.05363281 244.43 225.80257813 243.8834375 226.57421875 243.3203125 C227.33347656 242.76085937 228.09273438 242.20140625 228.875 241.625 C234.27907821 237.65768358 239.7163507 233.81096412 245.35205078 230.17724609 C245.89587402 229.78875488 246.43969727 229.40026367 247 229 C247 228.67 247 228.34 247 228 C237.1 228 227.2 228 217 228 Z " fill="#000000" transform="translate(79,25)"/>
<path d="M0 0 C17.09145235 -0.07051005 34.18285843 -0.1231916 51.2744236 -0.15543652 C59.21278409 -0.17081547 67.1510535 -0.1917301 75.08935547 -0.22631836 C82.01945007 -0.25649897 88.94947862 -0.27563991 95.87963712 -0.28226548 C99.5390698 -0.28613 103.19831376 -0.29501703 106.85768509 -0.31719017 C135.50752285 -0.48391273 167.51262082 -0.62592622 189.9375 20 C202.68141966 33.61887534 205.6608113 49.63843984 205.38671875 67.71484375 C204.45615958 92.6518138 198.44500883 121.13039873 180 139 C179.32839844 139.66902344 178.65679688 140.33804688 177.96484375 141.02734375 C172.50301979 146.1634128 166.65526866 150 159 150 C159 151.32 159 152.64 159 154 C159.88042969 153.94972656 160.76085938 153.89945313 161.66796875 153.84765625 C170.21169377 154.23828377 177.37097053 160.58683357 182.99609375 166.57421875 C190.75524123 175.96687096 194.5834315 185.37114519 194.5 197.5 C194.49033203 198.99635986 194.49033203 198.99635986 194.48046875 200.52294922 C193.95422013 222.68424798 187.69628045 248.16952402 174 266 C173.23816406 267.00289063 172.47632813 268.00578125 171.69140625 269.0390625 C161.24533344 282.36937535 148.25541693 290.97527804 132.4375 296.75 C131.69000488 297.03174072 130.94250977 297.31348145 130.17236328 297.60375977 C110.6361115 304.36537717 89.93179688 303.40894496 69.57257676 303.30418181 C65.25117325 303.28520206 60.9297609 303.28364804 56.60832214 303.28010559 C48.4561402 303.27084681 40.3040815 303.24631821 32.1519534 303.21605712 C22.85787397 303.18231898 13.5637881 303.16597871 4.2696625 303.15097082 C-14.82029441 303.11976182 -33.91013723 303.06712376 -53 303 C-50.95601544 284.8447187 -50.95601544 284.8447187 -49.37109375 276.2890625 C-49.22100861 275.45396652 -49.07092346 274.61887054 -48.91629028 273.75846863 C-48.4279539 271.04645932 -47.93268386 268.33576653 -47.4375 265.625 C-47.08331004 263.66376259 -46.72972914 261.70241511 -46.37670898 259.7409668 C-45.82158469 256.65682425 -45.26611257 253.57274935 -44.70881653 250.48899841 C-42.81381466 239.99925042 -40.96762655 229.50107026 -39.12310791 219.00234985 C-36.16365981 202.16313849 -33.16418517 185.33175665 -30.11834717 168.50796509 C-29.9349176 167.49471161 -29.75148804 166.48145813 -29.5625 165.4375 C-29.3789093 164.42336029 -29.1953186 163.40922058 -29.00616455 162.36434937 C-25.66723599 143.89878614 -22.47125676 125.41005137 -19.30166626 106.9147644 C-16.22654765 88.98144426 -13.05610325 71.06871478 -9.77294922 53.17236328 C-9.45667198 51.44824838 -9.14042799 49.72412738 -8.82421875 48 C-8.67142456 47.16709442 -8.51863037 46.33418884 -8.36120605 45.4760437 C-6.45508409 35.05990366 -4.62901596 24.62952756 -2.81347656 14.19726562 C-2.47461426 12.25883789 -2.47461426 12.25883789 -2.12890625 10.28125 C-1.93369385 9.15783203 -1.73848145 8.03441406 -1.53735352 6.87695312 C-1.10286131 4.55071224 -0.58683253 2.29011937 0 0 Z " fill="#FD5555" transform="translate(987,59)"/>
<path d="M0 0 C3.04445477 0.02386361 6.08804176 0.02049062 9.13256836 0.01391602 C23.61529193 0.03327608 37.53484463 0.85658402 51.52124023 4.96118164 C52.84828979 5.34814209 52.84828979 5.34814209 54.20214844 5.74291992 C73.37487195 11.59890088 89.53121294 21.94303274 99.73217773 39.61743164 C108.71824735 57.69345606 108.1007247 79.0511023 101.91186523 97.90649414 C99.72598447 103.82996114 97.25221582 108.79134937 94.08374023 114.33618164 C69.66374023 114.33618164 45.24374023 114.33618164 20.08374023 114.33618164 C21.6187142 110.49874672 23.24696981 107.01934439 25.18139648 103.39868164 C28.55542524 95.68661591 28.04749417 86.05970667 25.04467773 78.33227539 C21.56871564 71.11188258 16.301976 68.28216079 9.08374023 65.33618164 C3.87422886 63.75119747 -1.5217438 64.15182897 -6.91625977 64.14868164 C-8.52694336 64.1303125 -8.52694336 64.1303125 -10.17016602 64.11157227 C-23.04881244 64.08832561 -35.72218974 65.41251007 -45.93188477 74.03930664 C-51.20593451 79.72299132 -52.40583877 86.19262138 -52.23266602 93.77758789 C-51.26115872 101.63360369 -47.24798994 106.91892784 -41.15844727 111.72290039 C-28.68207198 120.7599707 -14.43127336 124.44842986 0.32202148 127.94165039 C6.9875676 129.52527387 13.4621846 131.48162147 19.96264648 133.64135742 C22.39170396 134.43706386 24.83096545 135.19668756 27.27124023 135.95727539 C49.03107271 142.83155862 68.02073778 153.16415419 79.76733398 173.64868164 C88.71379182 191.91326024 88.52109113 215.7761349 84.08374023 235.33618164 C83.83881836 236.43833008 83.59389648 237.54047852 83.34155273 238.67602539 C79.95120055 252.01241077 74.26138769 264.99207059 65.08374023 275.33618164 C64.63901367 275.92141602 64.19428711 276.50665039 63.73608398 277.10961914 C46.85957235 298.85719389 15.59282385 306.5187248 -10.16577148 309.99194336 C-19.85758008 311.20492491 -29.43548076 311.49298517 -39.19311523 311.46655273 C-41.51626254 311.46123882 -43.83921242 311.46650326 -46.16235352 311.47290039 C-77.17404849 311.48952765 -112.10496733 309.25921731 -136.12719727 287.31665039 C-142.05856916 281.19211122 -145.46907091 274.05043129 -148.91625977 266.33618164 C-149.26946289 265.57821289 -149.62266602 264.82024414 -149.98657227 264.03930664 C-152.83536963 255.75624877 -153.27076226 247.53586805 -153.22875977 238.83618164 C-153.22674561 237.70575439 -153.22473145 236.57532715 -153.22265625 235.41064453 C-152.9260646 210.34598648 -152.9260646 210.34598648 -148.91625977 206.33618164 C-146.57372195 206.24125442 -144.26079872 206.21058373 -141.91796875 206.22265625 C-140.82047302 206.22243721 -140.82047302 206.22243721 -139.70080566 206.22221375 C-137.27129193 206.22291297 -134.84185393 206.23070579 -132.41235352 206.23852539 C-130.73226463 206.24038954 -129.0521752 206.24181345 -127.37208557 206.24281311 C-122.94152333 206.24663857 -118.51099367 206.25646908 -114.08044434 206.26751709 C-109.56283 206.27773062 -105.04521043 206.2823106 -100.52758789 206.28735352 C-91.65713084 206.29809133 -82.78669801 206.31516808 -73.91625977 206.33618164 C-73.93720703 206.89490967 -73.9581543 207.4536377 -73.97973633 208.02929688 C-74.0639227 210.61056838 -74.1152367 213.19154988 -74.16625977 215.77368164 C-74.19977539 216.65217773 -74.23329102 217.53067383 -74.26782227 218.43579102 C-74.38144352 226.13363075 -72.51355768 231.97497258 -67.79125977 238.08618164 C-57.62880077 246.03941042 -46.57503509 247.71386147 -33.97875977 247.58618164 C-32.52808105 247.57603027 -32.52808105 247.57603027 -31.0480957 247.56567383 C-18.43559398 247.38263718 -5.14481683 245.78982546 4.08374023 236.33618164 C8.16047368 229.58713967 7.80848229 223.00362314 7.08374023 215.33618164 C5.11886779 207.72230091 -0.80571274 203.45119867 -7.05297852 199.20336914 C-21.18195802 190.98083316 -37.16392265 186.67969429 -52.63793945 181.71264648 C-80.81844262 172.66183127 -109.76403104 162.57651222 -124.32641602 134.63696289 C-134.26717559 113.99828515 -131.72817095 86.15555498 -124.50708008 64.97338867 C-115.71476766 40.82834611 -98.35251993 24.54597116 -75.47875977 13.58618164 C-68.50166414 10.35409846 -61.35941897 8.25090738 -53.91625977 6.33618164 C-53.07579102 6.07192383 -52.23532227 5.80766602 -51.36938477 5.53540039 C-34.84854623 0.40552218 -17.15644584 -0.14342293 0 0 Z " fill="#FD5555" transform="translate(579.916259765625,450.663818359375)"/>
<path d="M0 0 C23.76 0 47.52 0 72 0 C66.2898535 35.40290831 66.2898535 35.40290831 63.60253906 50.28833008 C63.10114619 53.06983008 62.60472593 55.85218355 62.109375 58.63476562 C60.5710497 67.26998163 59.02118316 75.90283756 57.43917847 84.53016663 C56.77579867 88.15797399 56.1212252 91.78733868 55.46820068 95.41702271 C55.16107627 97.11137175 54.84989339 98.80499122 54.53424072 100.49777222 C50.48693573 119.62718525 50.48693573 119.62718525 55 138 C59.28103997 142.90469764 63.89776363 145.72978258 70.453125 146.30078125 C80.8273411 146.33280044 89.26078447 145.78410252 97.09375 138.30859375 C111.92266343 120.3498072 114.1840401 93.04860024 118 71 C118.32075472 69.15201023 118.64155746 67.3040288 118.96240234 65.45605469 C119.30178304 63.49935333 119.641138 61.54264752 119.98046875 59.5859375 C120.23863373 58.09840721 120.23863373 58.09840721 120.50201416 56.58082581 C121.3486412 51.69851616 122.1906203 46.81552124 123.02099609 41.93041992 C125.42878651 27.88456402 128.20208422 13.98957888 131 0 C154.43 0 177.86 0 202 0 C202 7.87452372 202 7.87452372 201.40844727 11.11621094 C201.21127357 12.22271751 201.21127357 12.22271751 201.01011658 13.35157776 C200.79047997 14.53106239 200.79047997 14.53106239 200.56640625 15.734375 C200.33655785 17.0109623 200.33655785 17.0109623 200.10206604 18.31333923 C199.59439138 21.1265891 199.07838729 23.93824563 198.5625 26.75 C198.20423293 28.72749693 197.84666173 30.70512004 197.48974609 32.68286133 C196.92487159 35.8127091 196.35956729 38.94247221 195.79211426 42.07185364 C194.34957121 50.03209086 192.93538506 57.99706064 191.53515625 65.96484375 C191.33312088 67.11419403 191.13108551 68.26354431 190.92292786 69.44772339 C190.12842454 73.96994878 189.3345902 78.49229103 188.54153442 83.01477051 C187.98969178 86.1597748 187.43637868 89.30451744 186.8828125 92.44921875 C186.72164444 93.37041 186.56047638 94.29160126 186.39442444 95.2407074 C185.48072285 100.42543754 184.49292626 105.58615075 183.407547 110.73786926 C181.77449957 119.80226379 181.2918111 131.04953786 186.28125 139.07421875 C190.59360065 143.90601163 195.23920691 145.66726598 201.59765625 146.43359375 C212.09532023 146.7860077 220.60542676 145.12091377 228.8125 138.375 C237.29777124 130.13173293 240.71977134 120.07077172 244 109 C244.2990625 108.08089844 244.598125 107.16179687 244.90625 106.21484375 C254.56807794 73.41293789 248.97760446 33.37398337 246 0 C269.43 0 292.86 0 317 0 C326.22627491 24.60339975 325.43885904 56.28105245 321 82 C320.8546582 82.85819336 320.70931641 83.71638672 320.55957031 84.60058594 C316.74773839 106.15531612 309.54212384 126.81816949 299 146 C298.34605303 147.23161099 297.69240804 148.46338236 297.0390625 149.6953125 C282.65968682 176.31639652 258.53861552 195.16727746 229.78515625 203.96875 C202.17302472 211.49155983 169.31264868 211.3514621 143.8125 197.3125 C137.97371229 193.64650706 131.12928042 188.25856085 128 182 C124.03543218 182.5689889 121.96147945 184.52489156 119 187.125 C96.06861856 206.26481705 69.99776663 209.69716802 41 208 C21.71991654 206.10275774 2.35120893 200.72736425 -11.2890625 186.140625 C-20.93596303 174.07098689 -22.75166318 157.91031954 -22.5625 143 C-22.55824005 142.26945404 -22.5539801 141.53890808 -22.54959106 140.78622437 C-22.43388168 126.31045375 -20.51136342 112.36383273 -17.78710938 98.1484375 C-16.94594282 93.75212222 -16.16556738 89.34590029 -15.390625 84.9375 C-13.79031329 75.86206654 -12.14778611 66.79462712 -10.49658203 57.72833252 C-9.79377647 53.86696192 -9.09307321 50.00521059 -8.39225769 46.14347839 C-6.54861258 35.98463328 -4.70102356 25.82651071 -2.8503418 15.66894531 C-1.89913126 10.44616314 -0.94964844 5.22306643 0 0 Z " fill="#FE5555" transform="translate(1261,554)"/>
<path d="M0 0 C23.43 0 46.86 0 71 0 C70.38919727 6.71883003 69.76125659 13.08998375 68.50390625 19.66015625 C68.28041756 20.86543472 68.28041756 20.86543472 68.05241394 22.09506226 C67.72918426 23.83757768 67.40391194 25.57971522 67.07678223 27.32150269 C66.17042228 32.15217746 65.28186817 36.98611233 64.39453125 41.8203125 C64.20390106 42.8583049 64.01327087 43.8962973 63.81686401 44.96574402 C60.90998423 60.87323178 58.21842177 76.81908917 55.50219727 92.76000977 C55.10081268 95.10960433 54.69904667 97.45913378 54.296875 99.80859375 C54.10439682 100.93332596 53.91191864 102.05805817 53.71360779 103.21687317 C52.30407427 111.38920476 50.7922488 119.53857797 49.18035889 127.67344666 C48.56170797 130.82835451 48 133.77620159 48 137 C48.41507813 136.52691406 48.83015625 136.05382812 49.2578125 135.56640625 C58.16393563 126.00816113 69.63656974 119.11106727 82 115 C83.15757812 114.608125 84.31515625 114.21625 85.5078125 113.8125 C94.87409208 110.99102922 104.12906995 110.61474876 113.875 110.5625 C115.09888428 110.5524292 116.32276855 110.5423584 117.58374023 110.53198242 C132.95188342 110.67910091 146.62265732 115.12954071 157.87890625 125.77734375 C169.41405178 137.96025124 170.58029741 153.22306547 170.24609375 169.19140625 C170.01500701 175.11573455 169.01376222 180.41812679 167 186 C166.60941406 187.11503906 166.21882813 188.23007813 165.81640625 189.37890625 C162.2641962 198.54622454 157.33333489 205.61620859 151 213 C150.15501953 213.99773437 150.15501953 213.99773437 149.29296875 215.015625 C142.69064856 222.16953144 133.48694147 228.34879364 125 233 C124.34 233 123.68 233 123 233 C124.12250095 236.39666453 125.24844192 239.79217913 126.375 243.1875 C126.69210937 244.14720703 127.00921875 245.10691406 127.3359375 246.09570312 C127.6453125 247.02705078 127.9546875 247.95839844 128.2734375 248.91796875 C128.55622559 249.77156982 128.83901367 250.6251709 129.13037109 251.50463867 C130.51469622 256.4466498 130.51469622 256.4466498 133.6875 260.125 C134.450625 260.41375 135.21375 260.7025 136 261 C137.04027344 261.5053125 138.08054687 262.010625 139.15234375 262.53125 C143.02516132 264.19066956 146.69660035 264.45961561 150.875 264.375 C151.57173828 264.36919922 152.26847656 264.36339844 152.98632812 264.35742188 C158.53869588 264.21796706 162.926725 263.17426072 168 261 C168.13380119 269.5781432 167.92832761 278.11797086 167.5625 286.6875 C167.52326416 287.63633057 167.48402832 288.58516113 167.44360352 289.56274414 C167.31685922 292.37666212 167.15880415 295.18773178 167 298 C166.96479248 298.99612305 166.92958496 299.99224609 166.89331055 301.01855469 C166.49777142 308.35091442 166.49777142 308.35091442 164.13671875 311.4296875 C163.32847656 311.90664063 162.52023437 312.38359375 161.6875 312.875 C160.77484375 313.41511719 159.8621875 313.95523437 158.921875 314.51171875 C157.95765625 315.00285156 156.9934375 315.49398438 156 316 C154.64648438 316.69029297 154.64648438 316.69029297 153.265625 317.39453125 C134.88297745 325.79875272 113.41330647 328.27453162 94 322 C79.15358384 316.10431127 71.1246054 306.96470269 64.375 292.6875 C59.23967904 280.78365764 53 266.22302057 53 253 C52.17773926 253.23771118 52.17773926 253.23771118 51.33886719 253.48022461 C48.71761184 254.0627562 46.26127447 254.21206155 43.578125 254.31640625 C42.04091797 254.37924805 42.04091797 254.37924805 40.47265625 254.44335938 C39.40917969 254.48267578 38.34570312 254.52199219 37.25 254.5625 C35.63158203 254.62727539 35.63158203 254.62727539 33.98046875 254.69335938 C31.32043572 254.79928989 28.66031188 254.90136421 26 255 C25.89623047 256.00095703 25.79246094 257.00191406 25.68554688 258.03320312 C24.55807721 268.45772845 22.91600698 278.72266509 20.96826172 289.0234375 C20.49527125 291.52500961 20.03017787 294.02795388 19.56640625 296.53125 C19.26346798 298.15633342 18.96009831 299.78133649 18.65625 301.40625 C18.51973022 302.13767212 18.38321045 302.86909424 18.24255371 303.62268066 C17.26600226 308.77999173 16.14008686 313.86960915 15 319 C-8.43 319 -31.86 319 -56 319 C-55.39454821 311.73457851 -54.78329313 304.84862285 -53.46875 297.7421875 C-53.24156784 296.47537392 -53.24156784 296.47537392 -53.00979614 295.18296814 C-52.51171591 292.41268152 -52.00581312 289.64388416 -51.5 286.875 C-51.14056678 284.88250411 -50.78169329 282.88990717 -50.42333984 280.8972168 C-49.47786334 275.64698903 -48.52601554 270.3979392 -47.57214355 265.14923096 C-45.91686143 256.03811598 -44.27024807 246.92543138 -42.625 237.8125 C-42.4402713 236.79038422 -42.2555426 235.76826843 -42.06521606 234.71517944 C-38.71236712 216.14891197 -35.49019347 197.56131597 -32.29891968 178.9666748 C-29.55678975 162.99040986 -26.78596585 147.02016716 -23.9375 131.0625 C-23.77723328 130.16463776 -23.61696655 129.26677551 -23.45184326 128.34170532 C-22.80268363 124.70588098 -22.15337384 121.07008352 -21.50375366 117.43434143 C-19.69788985 107.32100107 -17.91286446 97.20399589 -16.12896729 87.08676147 C-15.5667867 83.89930478 -15.00393079 80.71196799 -14.44091797 77.5246582 C-12.66116999 67.44528817 -10.88722273 57.36496295 -9.1285553 47.28189087 C-8.3066702 42.57172891 -7.48205402 37.86204692 -6.65719604 33.15240479 C-6.26415928 30.90374317 -5.87247236 28.65484516 -5.48220825 26.40570068 C-4.94072649 23.28549299 -4.39466856 20.16611715 -3.84765625 17.046875 C-3.68970581 16.12945526 -3.53175537 15.21203552 -3.36901855 14.26681519 C-3.21767456 13.4088736 -3.06633057 12.55093201 -2.91040039 11.66699219 C-2.78210342 10.93035339 -2.65380646 10.1937146 -2.5216217 9.43475342 C-1.83967939 6.25167768 -0.89430131 3.13005457 0 0 Z " fill="#FD5555" transform="translate(1775,43)"/>
<path d="M0 0 C23.76 0 47.52 0 72 0 C69.70947208 17.17895941 69.70947208 17.17895941 68.40625 24.05078125 C68.09982981 25.70727101 67.79343456 27.36376538 67.48706055 29.02026367 C67.32668304 29.87961517 67.16630554 30.73896667 67.00106812 31.62435913 C62.28899755 56.9037754 57.95927925 82.24856064 53.61776733 107.59364319 C52.10744733 116.40094342 50.56730862 125.20267258 49 134 C49.7415332 133.3706958 50.48306641 132.7413916 51.24707031 132.09301758 C57.19335746 127.07424958 63.13473602 122.66975459 70 119 C70.680625 118.63261719 71.36125 118.26523437 72.0625 117.88671875 C93.22995769 107.50343931 120.11849599 108.45910961 142.125 115.875 C153.94554917 120.66467206 161.17062133 127.46659518 166.73828125 138.9375 C174.31450968 157.3268594 169.46669409 179.11153418 166 198 C165.84774963 198.83247253 165.69549927 199.66494507 165.53863525 200.52264404 C163.95763232 209.15750166 162.36318457 217.78979806 160.73046875 226.41503906 C160.55831345 227.32572647 160.38615814 228.23641388 160.20878601 229.17469788 C159.8842552 230.88838598 159.55834908 232.60181445 159.23078918 234.31492615 C156.16691152 247.83397724 156.16691152 247.83397724 158.375 261.0625 C159.86252499 263.0970615 159.86252499 263.0970615 162 264 C164.37254644 264.12471821 166.74920712 264.17569188 169.125 264.1875 C170.40632812 264.20167969 171.68765625 264.21585938 173.0078125 264.23046875 C177.30320399 263.98249605 180.87185278 263.16305261 185 262 C185.05855048 269.17918912 185.0520068 276.35590779 185.00341797 283.53515625 C185.0002005 286.79674946 185.05916695 290.05180019 185.12890625 293.3125 C185.24002384 307.21365418 185.24002384 307.21365418 182.09375 311.74609375 C179.46419991 313.68081019 177.04426731 314.83419804 174 316 C173.07832031 316.45761719 172.15664063 316.91523437 171.20703125 317.38671875 C152.72048415 326.48658467 131.09946627 328.02627693 111.3125 322.1875 C100.88929632 318.45087981 90.98402074 311.92958371 86.0625 301.6875 C85.32793205 299.8094025 84.64005903 297.91237149 84 296 C83.52433594 294.59427734 83.52433594 294.59427734 83.0390625 293.16015625 C75.8419665 268.56457589 84.86195732 234.37304657 91.56665039 209.93457031 C92.57575315 205.42970818 92.2282373 200.6571509 92.25 196.0625 C92.270625 194.97775391 92.29125 193.89300781 92.3125 192.77539062 C92.31765625 191.72673828 92.3228125 190.67808594 92.328125 189.59765625 C92.34214355 188.16691772 92.34214355 188.16691772 92.35644531 186.70727539 C91.93701983 183.5216527 90.73528547 181.66850252 89 179 C89 178.34 89 177.68 89 177 C77.20929783 172.14500499 66.07801418 171.19380797 54 176 C50.4909732 177.76938216 47.17647859 179.68417158 44 182 C43.29359375 182.50273438 42.5871875 183.00546875 41.859375 183.5234375 C38.88421331 187.48615286 38.50511734 191.87054682 37.6875 196.6875 C37.48294189 197.81687988 37.27838379 198.94625977 37.06762695 200.10986328 C36.35801819 204.06994644 35.6762859 208.0341273 35 212 C34.74101139 213.50962448 34.48189318 215.01922673 34.22265625 216.52880859 C33.07554331 223.21843701 31.93458829 229.90908706 30.80419922 236.6015625 C27.39217286 256.76892251 23.68897507 276.88177514 20 297 C18.68 304.26 17.36 311.52 16 319 C-7.43 319 -30.86 319 -55 319 C-55 310.00152919 -55 310.00152919 -54.42431641 306.97314453 C-54.29602448 306.27770538 -54.16773254 305.58226624 -54.03555298 304.86575317 C-53.82072769 303.76044754 -53.82072769 303.76044754 -53.6015625 302.6328125 C-53.45133636 301.826091 -53.30111023 301.01936951 -53.14633179 300.1882019 C-52.81826589 298.42862857 -52.48714612 296.66962247 -52.15332031 294.91113281 C-51.22373876 290.00892178 -50.3195359 285.10202418 -49.4140625 280.1953125 C-49.21951477 279.14329651 -49.02496704 278.09128052 -48.82452393 277.00738525 C-46.43465361 264.02489117 -44.223699 251.01176826 -42 238 C-39.08703974 220.9833442 -36.12326058 203.97935009 -33 187 C-29.88131932 170.04078435 -26.9154915 153.05778977 -24 136.0625 C-20.25480066 114.23273517 -16.43190657 92.41874119 -12.53546143 70.61552429 C-10.181079 57.42983361 -7.86211994 44.23785136 -5.53878784 31.04666138 C-5.16368935 28.91700841 -4.78848384 26.78737428 -4.41316223 24.65776062 C-4.07336531 22.72967682 -3.73381422 20.80154967 -3.39457703 18.87336731 C-2.28500689 12.57794598 -1.14355956 6.28957761 0 0 Z " fill="#FD5555" transform="translate(761,437)"/>
<path d="M0 0 C69.63 0 139.26 0 211 0 C210.34235311 5.26117514 209.63074149 10.41494987 208.73046875 15.62890625 C208.54705681 16.6953965 208.54705681 16.6953965 208.35993958 17.78343201 C207.97083276 20.04341951 207.5792052 22.30296158 207.1875 24.5625 C206.9366853 26.01754992 206.68603341 27.47262792 206.43554688 28.92773438 C204.30417004 41.28755066 202.14900208 53.64323806 200 66 C155.12 66 110.24 66 64 66 C63.34 70.29 62.68 74.58 62 79 C59.36 94.51 56.72 110.02 54 126 C90.63 126 127.26 126 165 126 C163.87485095 138.37663951 163.87485095 138.37663951 163.07617188 142.97460938 C162.89928833 144.00517456 162.72240479 145.03573975 162.54016113 146.09753418 C162.35159546 147.1687854 162.16302979 148.24003662 161.96875 149.34375 C161.77277222 150.47526489 161.57679443 151.60677979 161.37487793 152.77258301 C160.96343548 155.14269794 160.54987467 157.51244603 160.13427734 159.88183594 C159.49707378 163.51669227 158.86717081 167.15275944 158.23828125 170.7890625 C157.83636297 173.0990324 157.43403397 175.40893089 157.03125 177.71875 C156.84268433 178.80619507 156.65411865 179.89364014 156.45983887 181.01403809 C156.19451355 182.52205994 156.19451355 182.52205994 155.92382812 184.06054688 C155.76918091 184.9444812 155.61453369 185.82841553 155.4552002 186.73913574 C155 189 155 189 154 192 C117.04 192 80.08 192 42 192 C41.505 195.96 41.505 195.96 41 200 C40.62601137 202.41887793 40.23759463 204.83556228 39.8359375 207.25 C39.72327042 207.92877701 39.61060333 208.60755402 39.49452209 209.30690002 C39.12332235 211.53826788 38.74938786 213.76916498 38.375 216 C38.24505646 216.77689178 38.11511292 217.55378357 37.98123169 218.35421753 C35.84839744 231.09871403 33.65990894 243.83333785 31.4375 256.5625 C31.30196716 257.34085205 31.16643433 258.1192041 31.02679443 258.92114258 C28.46138526 273.6355605 25.71999904 288.31200521 23 303 C-2.08 303 -27.16 303 -53 303 C-52.3342292 296.34229202 -51.5678887 289.86071105 -50.43359375 283.2890625 C-50.27940475 282.38080215 -50.12521576 281.47254181 -49.96635437 280.53675842 C-49.46052292 277.56551126 -48.9492681 274.59522996 -48.4375 271.625 C-48.07598934 269.51278008 -47.71449881 267.40055671 -47.35302734 265.28833008 C-44.87418034 250.85193297 -42.28509925 236.43743556 -39.63668823 222.03131104 C-36.63791845 205.70774031 -33.80150262 189.3584848 -31 173 C-27.93659895 155.11460241 -24.8052955 137.24582112 -21.52151489 119.39959717 C-18.53714475 103.16221136 -15.7244079 86.89733116 -12.9375 70.625 C-10.02234442 53.60903645 -7.07340053 36.60183311 -3.9375 19.625 C-3.7182637 18.43550751 -3.7182637 18.43550751 -3.49459839 17.22198486 C-1.20223526 4.80894103 -1.20223526 4.80894103 0 0 Z " fill="#FD5555" transform="translate(108,59)"/>
<path d="M0 0 C2.19779025 0.01838642 4.39515783 0.02050763 6.59301758 0.02026367 C29.83728428 0.07548577 53.2834945 3.28637979 72.0012207 18.20581055 C72.95061523 18.89416992 72.95061523 18.89416992 73.91918945 19.59643555 C82.43788229 26.14059693 88.38561157 37.29759811 90.6887207 47.64331055 C91.06577148 49.25012695 91.06577148 49.25012695 91.45043945 50.8894043 C93.39875251 63.10501788 91.54307773 75.06754349 89.3762207 87.08081055 C89.1005472 88.6519645 88.82566055 90.22325669 88.55151367 91.79467773 C87.98741792 95.01661017 87.41543047 98.23702066 86.83911133 101.45678711 C86.16191065 105.26124391 85.52235623 109.07057833 84.90031433 112.88439941 C79.89710638 143.52918358 73.41402774 174.61605243 46.8137207 193.95581055 C12.72939152 216.30619034 -33.46930986 219.02222246 -72.5078125 210.94018555 C-88.78766919 207.32041241 -105.24610801 200.42632863 -114.9987793 186.20581055 C-121.05796138 175.79262604 -123.22199261 164.31959241 -123.3737793 152.39331055 C-123.38771729 151.73194092 -123.40165527 151.07057129 -123.41601562 150.38916016 C-123.34986146 143.07697658 -121.79551488 135.95031344 -120.46759033 128.7875061 C-119.78290345 125.01700379 -119.1480636 121.23846981 -118.51046753 117.45976257 C-117.79052183 113.20910799 -117.05155588 108.96183979 -116.31176758 104.71459961 C-115.93784964 102.55022119 -115.56963951 100.38484858 -115.20727539 98.21850586 C-110.34292495 69.20817019 -102.34376023 40.5377574 -77.72143555 22.04174805 C-65.86031122 14.04357239 -53.49284444 8.27468136 -39.6862793 4.51831055 C-38.95256104 4.31568604 -38.21884277 4.11306152 -37.46289062 3.90429688 C-25.08342407 0.70567864 -12.71469052 -0.10962167 0 0 Z " fill="#FD5555" transform="translate(1594.998779296875,153.794189453125)"/>
<path d="M0 0 C1.09210281 0.00089127 1.09210281 0.00089127 2.20626831 0.00180054 C14.88445037 0.04130311 27.0999309 0.42806587 39.375 3.875 C40.32608643 4.14078857 41.27717285 4.40657715 42.25708008 4.68041992 C58.78490775 9.49654063 73.87161567 17.76834165 82.5 33.25 C95.3970576 60.42114479 86.46160437 91.30090366 81.03405762 119.45050049 C80.48924518 122.30637616 79.96177545 125.16501167 79.43847656 128.02490234 C79.26507751 128.96282623 79.09167847 129.90075012 78.9130249 130.86709595 C78.58744208 132.62890172 78.26540256 134.39136802 77.94781494 136.15463257 C73.94655949 157.58931443 63.86998363 179.01212975 46.3125 192.5625 C12.0435154 215.61882816 -33.04236705 219.10006299 -72.80078125 211.4375 C-89.83076215 207.92553949 -107.30820833 201.16416634 -117.5 186.25 C-123.55812055 175.54069946 -125.74699103 164.86787337 -125.8125 152.6875 C-125.81805908 151.82527832 -125.82361816 150.96305664 -125.8293457 150.07470703 C-125.78053231 145.66815058 -125.43661905 141.47712094 -124.60546875 137.14697266 C-123.88321426 133.30396878 -123.18259856 129.46004864 -122.52612305 125.60522461 C-121.61816621 120.27522873 -120.70022427 114.94702811 -119.77856445 109.61938477 C-119.38677211 107.34452937 -118.99806344 105.06914057 -118.61254883 102.79321289 C-112.4001712 66.16911052 -112.4001712 66.16911052 -105.625 53.75 C-105.28331787 53.09821777 -104.94163574 52.44643555 -104.58959961 51.77490234 C-101.64942735 46.28122554 -98.38209441 41.13177538 -94.5 36.25 C-93.85804687 35.43273437 -93.21609375 34.61546875 -92.5546875 33.7734375 C-78.66362938 17.2169365 -58.20818436 8.00965396 -37.5 3.25 C-36.79198242 3.08628906 -36.08396484 2.92257813 -35.35449219 2.75390625 C-23.63921485 0.20779299 -11.934353 -0.01075905 0 0 Z " fill="#FD5555" transform="translate(1347.5,153.75)"/>
<path d="M0 0 C0.71500671 0.00021149 1.43001343 0.00042297 2.16668701 0.00064087 C14.40535689 0.03655785 26.04255729 1.11896909 37.875 4.375 C38.93654297 4.66383057 38.93654297 4.66383057 40.01953125 4.95849609 C56.6764094 9.65206557 71.99878935 18.50302146 81.2421875 33.609375 C92.13592013 53.84980131 87.55686278 75.14600066 83.71386719 96.65332031 C83.11700282 99.99409543 82.53657056 103.33728185 81.96582031 106.68261719 C81.16087618 111.39768311 80.33524087 116.10874974 79.49658203 120.81793213 C79.17148343 122.6556423 78.85161612 124.49428745 78.53759766 126.33392334 C74.85180054 147.80527173 68.41034056 167.71813044 53.875 184.375 C53.35550781 184.98988281 52.83601563 185.60476563 52.30078125 186.23828125 C34.07214107 206.2117283 2.43465902 213.16788865 -23.38598633 214.49084473 C-29.04844945 214.70347383 -34.7090083 214.75085658 -40.375 214.75 C-41.14924316 214.75181274 -41.92348633 214.75362549 -42.72119141 214.75549316 C-68.092536 214.7487555 -94.8583247 210.80384085 -113.9765625 192.61328125 C-126.14598716 179.84833156 -127.079779 163.39749729 -126.70703125 146.671875 C-126.09610048 129.19896167 -122.05434049 111.85579289 -118.60595703 94.76837158 C-118.17481297 92.62288272 -117.75253181 90.47598965 -117.3359375 88.32763672 C-112.25602128 62.2602218 -102.54419042 37.90278046 -80.53515625 21.4375 C-69.14940815 13.94731623 -57.35507612 8.5996427 -44.125 5.375 C-43.05507812 5.09914063 -41.98515625 4.82328125 -40.8828125 4.5390625 C-27.33868166 1.19442383 -13.9182351 -0.03842794 0 0 Z " fill="#FD5555" transform="translate(1109.125,547.625)"/>
<path d="M0 0 C0.91910156 0.25523437 1.83820313 0.51046875 2.78515625 0.7734375 C11.9008274 3.8448692 18.68740056 9.97877321 23.13598633 18.43603516 C26.35088437 24.94715673 28.12526215 29.88542483 28.1328125 37.12890625 C28.13410156 38.32966797 28.13539063 39.53042969 28.13671875 40.76757812 C28.13285156 42.01990234 28.12898437 43.27222656 28.125 44.5625 C28.12886719 45.78775391 28.13273438 47.01300781 28.13671875 48.27539062 C28.12587471 58.45252412 27.55664007 68.24198801 25.375 78.1875 C23.34548217 87.97804434 21.50500958 97.80262642 19.73370361 107.64273071 C19.4152475 109.40042766 19.09208525 111.1572795 18.76385498 112.91317749 C15.42086876 128.88503011 15.42086876 128.88503011 16 145 C18.59102568 148.17453901 19.92736093 149.78631568 23.98046875 150.59375 C31.10644976 150.38543874 37.31491446 149.53520174 44 147 C44.05981735 151.96484017 44.04941855 156.92563606 44.0078125 161.890625 C44.00220496 164.12242677 44.01770352 166.35431934 44.046875 168.5859375 C44.09433793 172.45416652 44.08167342 176.31908055 44.0625 180.1875 C44.10419312 182.06634888 44.10419312 182.06634888 44.14672852 183.9831543 C44.02846928 192.71256855 44.02846928 192.71256855 41.16259766 196.30004883 C38.86223874 198.15080321 36.59934689 199.60541628 34 201 C33.38068604 201.34780518 32.76137207 201.69561035 32.12329102 202.05395508 C30.53611362 202.88246121 28.89304089 203.60118352 27.25 204.3125 C26.18265625 204.78300781 25.1153125 205.25351562 24.015625 205.73828125 C5.55652719 213.461453 -15.64620424 213.00012441 -34.5 206.25 C-43.93270425 202.03095031 -52.17400519 194.74294571 -56.25 185.1875 C-65.00607892 160.77993002 -57.40086284 134.71606948 -52.69381714 110.16517639 C-52.1322604 107.22829986 -51.57927752 104.28982931 -51.02618408 101.35134888 C-50.63902265 99.32344879 -50.23519548 97.29942429 -49.82958984 95.27514648 C-46.69663481 79.82115644 -46.69663481 79.82115644 -49.625 64.75 C-53.06519944 60.76661118 -56.28652363 59.21132875 -61.515625 58.56640625 C-72.73012738 58.5546756 -80.15411164 60.70180598 -89.30859375 67.046875 C-93.91187479 72.36244202 -94.75731331 80.14264819 -95.83203125 86.8671875 C-95.98899475 87.8064357 -96.14595825 88.7456839 -96.30767822 89.71339417 C-96.81644809 92.76612309 -97.31433086 95.82052509 -97.8125 98.875 C-98.34522909 102.08314468 -98.88086761 105.29079591 -99.41648865 108.49845886 C-99.77418568 110.6423526 -100.13092639 112.78640612 -100.48670959 114.93061829 C-101.95515528 123.77663377 -103.49007093 132.60946094 -105.0625 141.4375 C-105.29829262 142.76584864 -105.53396959 144.09421781 -105.76953125 145.42260742 C-106.12756033 147.44146122 -106.48564975 149.46030401 -106.84411621 151.4790802 C-108.35316555 159.9805951 -109.84778799 168.48464273 -111.33908081 176.98928833 C-111.65123759 178.76839885 -111.96382937 180.5474331 -112.27688599 182.3263855 C-112.71298574 184.80464668 -113.14767594 187.28315131 -113.58203125 189.76171875 C-113.71091736 190.4924762 -113.83980347 191.22323364 -113.97259521 191.97613525 C-114.73049767 196.31214504 -115.37700356 200.6390249 -116 205 C-139.76 205 -163.52 205 -188 205 C-185.70200919 185.46707813 -185.70200919 185.46707813 -184.3359375 178.04296875 C-184.1830275 177.18832535 -184.03011749 176.33368195 -183.87257385 175.45314026 C-183.37820009 172.6970341 -182.87666548 169.9422873 -182.375 167.1875 C-182.01982721 165.21459675 -181.66510049 163.24161316 -181.31079102 161.26855469 C-179.53848918 151.41674224 -177.74028394 141.56964455 -175.94140625 131.72265625 C-175.43982469 128.97646076 -174.93827059 126.23026028 -174.43682861 123.48403931 C-174.10285088 121.6553673 -173.76866168 119.8267339 -173.43426514 117.99813843 C-170.87901286 104.01461877 -168.4437592 90.01400731 -166.07751465 75.99737549 C-162.84138817 56.8458499 -159.36053394 37.74013811 -155.8503418 18.63720703 C-154.89470932 13.42581362 -153.94778655 8.21282604 -153 3 C-130.89 3 -108.78 3 -86 3 C-86.99 8.61 -87.98 14.22 -89 20 C-89 21.65 -89 23.3 -89 25 C-88.29617188 24.23816406 -87.59234375 23.47632813 -86.8671875 22.69140625 C-64.05989316 -1.40058542 -31.97394524 -9.00123305 0 0 Z " fill="#FD5555" transform="translate(739,157)"/>
<path d="M0 0 C62.37 0 124.74 0 189 0 C184.40890052 28.69437173 184.40890052 28.69437173 182.3125 40.1875 C181.89165953 42.51427454 181.47107683 44.84109572 181.05078125 47.16796875 C180.78261597 48.64172974 180.78261597 48.64172974 180.5090332 50.14526367 C180.15225925 52.14610676 179.87033969 54.16106131 179.64477539 56.1809082 C178.90600761 59.41095422 178.3230457 60.12053983 175.6328125 61.9375 C174.9219751 62.43241943 174.2111377 62.92733887 173.47875977 63.43725586 C172.31364868 64.21081421 172.31364868 64.21081421 171.125 65 C169.46918102 66.14587773 167.81426122 67.29305568 166.16015625 68.44140625 C164.8764917 69.32143311 164.8764917 69.32143311 163.56689453 70.21923828 C159.50168895 73.03944082 155.53425401 75.98785814 151.5625 78.9375 C149.97030139 80.11361883 148.37785216 81.28939845 146.78515625 82.46484375 C145.99512207 83.04862793 145.20508789 83.63241211 144.39111328 84.23388672 C140.43008838 87.15956103 136.46484283 90.07950306 132.5 93 C130.91664621 94.1666389 129.33331288 95.33330558 127.75 96.5 C107.16666667 111.66666667 86.58333333 126.83333333 66 142 C98.01 142.33 130.02 142.66 163 143 C163 150.87398928 163 150.87398928 162.38916016 154.06079102 C162.25547028 154.77586319 162.1217804 155.49093536 161.98403931 156.22767639 C161.83719696 156.97883224 161.69035461 157.7299881 161.5390625 158.50390625 C161.38843353 159.30424789 161.23780457 160.10458954 161.08261108 160.92918396 C160.60271176 163.47479813 160.11446042 166.01870844 159.625 168.5625 C159.14380405 171.08148791 158.66457255 173.60081396 158.18881226 176.12083435 C157.89389808 177.68110303 157.59589738 179.24079365 157.29385376 180.79969788 C155.95425623 187.85332792 155.01951378 194.86340355 154 202 C91.63 202 29.26 202 -35 202 C-34.3806226 193.94809386 -33.72869254 186.36513141 -32.2578125 178.5 C-32.08877411 177.57582275 -31.91973572 176.65164551 -31.74557495 175.69946289 C-31.3909625 173.77312467 -31.03288323 171.84742151 -30.67138672 169.92236328 C-30.12132399 166.98033876 -29.58948401 164.03538113 -29.05859375 161.08984375 C-28.70942463 159.20552662 -28.35920222 157.32140429 -28.0078125 155.4375 C-27.85144318 154.56351563 -27.69507385 153.68953125 -27.53396606 152.7890625 C-26.53211038 147.55605497 -25.48370176 143.24910699 -21.38452148 139.53710938 C-20.80259033 139.14330078 -20.22065918 138.74949219 -19.62109375 138.34375 C-18.95674316 137.88556885 -18.29239258 137.4273877 -17.60791016 136.95532227 C-16.8916748 136.47506592 -16.17543945 135.99480957 -15.4375 135.5 C-13.89113475 134.43734999 -12.34558773 133.37350851 -10.80078125 132.30859375 C-10.00494629 131.76315918 -9.20911133 131.21772461 -8.38916016 130.65576172 C-4.58813366 128.02153305 -0.86022332 125.28880501 2.875 122.5625 C9.0506406 118.07326109 15.30349818 113.71854943 21.625 109.4375 C28.2108586 104.97553076 34.61684777 100.3421949 40.94189453 95.51928711 C46.79027879 91.08902337 52.83320326 86.97707376 58.91162109 82.87084961 C64.90812008 78.79956816 70.73850481 74.54771981 76.48632812 70.1328125 C81.21673709 66.51453652 86.00912394 63.32725071 91 60 C57.67 59.67 24.34 59.34 -10 59 C-9.3901923 51.68230758 -8.76574409 44.73859571 -7.44140625 37.578125 C-7.29219223 36.74843201 -7.14297821 35.91873901 -6.98924255 35.06390381 C-6.67672532 33.33264702 -6.36153257 31.60187111 -6.04370117 29.87158203 C-5.56109364 27.24233815 -5.08750518 24.61158699 -4.61523438 21.98046875 C-4.30781607 20.28375907 -3.999891 18.58714111 -3.69140625 16.890625 C-3.48192101 15.72941132 -3.48192101 15.72941132 -3.26820374 14.54473877 C-3.13143723 13.80326599 -2.99467072 13.06179321 -2.85375977 12.29785156 C-2.73686295 11.6589801 -2.61996613 11.02010864 -2.49952698 10.36187744 C-1.76433929 6.88574244 -0.86173612 3.44694449 0 0 Z " fill="#FD5555" transform="translate(340,160)"/>
<path d="M0 0 C5.05683133 4.56995917 8.64695949 9.91805174 9.43359375 16.78515625 C9.45673324 18.21075031 9.45678692 19.63684861 9.4375 21.0625 C9.43049072 22.22193115 9.43049072 22.22193115 9.42333984 23.40478516 C9.20378412 32.3637296 7.34181949 40.98082212 5.46533203 49.71337891 C4.86827401 52.64729571 4.46191864 55.59594405 4.0625 58.5625 C2.18794783 69.82583485 -3.00174174 80.51243587 -12.1171875 87.66015625 C-14.04703214 88.90909344 -15.92769701 90.00728 -18 91 C-18.72058594 91.36351562 -19.44117188 91.72703125 -20.18359375 92.1015625 C-24.10658441 93.35300196 -27.780909 93.36827735 -31.875 93.375 C-32.65230469 93.39949219 -33.42960937 93.42398438 -34.23046875 93.44921875 C-39.98800986 93.47824837 -43.26257486 92.28755825 -48 89 C-53.99682548 82.86688303 -56.42715637 77.11829495 -56.35546875 68.63671875 C-56.25044108 60.61745392 -55.16876306 52.85556554 -53.71118164 44.98071289 C-53.31129706 42.80595789 -52.94057114 40.62756596 -52.57226562 38.44726562 C-49.97412197 23.62631972 -46.11162907 11.05889234 -33.921875 1.34375 C-23.99089071 -5.38116849 -10.24294375 -6.80866242 0 0 Z " fill="#010000" transform="translate(1603,216)"/>
<path d="M0 0 C5.28741856 3.64244389 8.37054623 8.52404837 10.93359375 14.33203125 C12.20242481 24.2004508 10.31406168 34.33355418 8.64477539 44.05493164 C8.24640905 46.39268098 7.87518548 48.73368008 7.50585938 51.07617188 C5.24221847 64.88831217 2.04746472 78.83409485 -9.26953125 88.14453125 C-16.14302838 93.00741357 -22.71044825 94.684581 -31.12890625 94.64453125 C-31.81017578 94.66064453 -32.49144531 94.67675781 -33.19335938 94.69335938 C-39.2392872 94.69916718 -43.10470398 92.96678314 -47.69140625 89.14453125 C-54.32509453 81.28884776 -55.11377139 73.4698198 -54.40185547 63.44140625 C-53.69090671 56.85141831 -52.48188147 50.34187783 -51.25390625 43.83203125 C-51.12356995 43.14052979 -50.99323364 42.44902832 -50.85894775 41.73657227 C-46.46326818 18.74462569 -46.46326818 18.74462569 -39.06640625 9.33203125 C-38.56367187 8.69136719 -38.0609375 8.05070313 -37.54296875 7.390625 C-28.35516024 -2.98487583 -12.43091408 -6.45495172 0 0 Z " fill="#010000" transform="translate(1351.06640625,214.66796875)"/>
<path d="M0 0 C4.62994658 3.62887705 7.71095498 8.85940996 10.3125 14.0625 C10.98115042 24.68278555 9.91574675 34.7721756 7.96875 45.19165039 C7.55997165 47.38858834 7.1770839 49.5889724 6.796875 51.79101562 C4.21685499 66.31222078 0.4289842 79.8755442 -11.43359375 89.5546875 C-19.18409464 94.73959797 -27.51595535 96.11287243 -36.6875 95.0625 C-43.81962868 93.52743919 -47.71337224 89.74950723 -51.9375 84 C-57.49477952 74.67170938 -54.52988645 62.04053775 -52.9375 51.875 C-52.75558105 50.69679688 -52.57366211 49.51859375 -52.38623047 48.3046875 C-46.96009713 14.10927947 -46.96009713 14.10927947 -34.078125 3.72265625 C-25.0503225 -2.54665104 -10.17899465 -5.64845946 0 0 Z " fill="#010000" transform="translate(1111.6875,608.9375)"/>
<path d="M0 0 C6.75849341 -0.10222931 13.51678416 -0.17181011 20.27587891 -0.21972656 C22.57055106 -0.2397223 24.86517304 -0.26692802 27.15966797 -0.30175781 C56.41286726 -0.73438451 56.41286726 -0.73438451 67 8 C73.16364052 14.51584855 74.69918428 20.794684 74.4765625 29.578125 C73.47090906 36.79904646 70.108623 43.4479983 64.75 48.4375 C53.96563211 56.49014474 43.12441541 58.32237189 29.96484375 58.1953125 C28.2859481 58.19106766 28.2859481 58.19106766 26.57313538 58.18673706 C23.02781095 58.17561732 19.48274699 58.1505279 15.9375 58.125 C13.52148805 58.1149596 11.1054721 58.10583561 8.68945312 58.09765625 C2.79288114 58.0757049 -3.10354081 58.04230979 -9 58 C-8.57905304 45.47987326 -6.25148338 33.4046973 -3.9375 21.125 C-3.55593846 19.06914061 -3.17507382 17.01315175 -2.79492188 14.95703125 C-1.87130175 9.96982648 -0.93829332 4.98446407 0 0 Z " fill="#020000" transform="translate(1031,238)"/>
<path d="M0 0 C5.22864743 -0.07476069 10.45697628 -0.12888763 15.68603516 -0.16479492 C17.46082996 -0.17978093 19.23558837 -0.20017682 21.01025391 -0.22631836 C45.02263494 -0.5708967 45.02263494 -0.5708967 52.375 6.1875 C53.28378906 6.98220703 53.28378906 6.98220703 54.2109375 7.79296875 C59.32193795 14.09802389 60.674595 19.85887839 60.5 27.875 C60.48864014 28.75687988 60.47728027 29.63875977 60.46557617 30.54736328 C60.18377096 39.98216687 57.82939081 47.32582262 51 54 C39.08859753 63.51824398 24.7111012 62.37935264 10.3125 62.1875 C8.33920292 62.17242677 6.3658947 62.15874303 4.39257812 62.14648438 C-0.40522629 62.11368595 -5.20248837 62.06204913 -10 62 C-10.13813921 56.30037629 -9.84117866 50.98549929 -8.828125 45.3515625 C-8.70561371 44.66004089 -8.58310242 43.96851929 -8.45687866 43.25604248 C-8.06253436 41.04417879 -7.65673268 38.83461599 -7.25 36.625 C-6.97539197 35.1024406 -6.70114231 33.57981652 -6.42724609 32.05712891 C-4.48433572 21.3273859 -2.35649945 10.64674176 0 0 Z " fill="#010000" transform="translate(1051,125)"/>
<path d="M0 0 C2.86988048 2.24231447 4.13824726 3.85512903 5.58984375 7.2421875 C6.5611644 15.16905714 6.03410739 22.51891368 1.25390625 29.07421875 C-9.97842002 41.64894499 -29.46845672 44.85903671 -45.41015625 46.2421875 C-48.75572766 46.36594477 -52.06586827 46.35555319 -55.41015625 46.2421875 C-55.79169626 22.20516679 -55.79169626 22.20516679 -48.84765625 14.0546875 C-46.71875 12.0625 -46.71875 12.0625 -44.41015625 10.2421875 C-43.59675781 9.60023438 -42.78335937 8.95828125 -41.9453125 8.296875 C-30.46917003 -0.15550728 -13.71976399 -8.41169462 0 0 Z " fill="#020000" transform="translate(1864.41015625,213.7578125)"/>
</svg>
